<?xml version="1.0" encoding="UTF-8"?>
<svg width="218px" height="46px" viewBox="0 0 218 46" version="1.1" xmlns="http://www.w3.org/2000/svg" xmlns:xlink="http://www.w3.org/1999/xlink">
    <!-- Generator: Sketch 63.1 (92452) - https://sketch.com -->
    <title>brand/logo-white</title>
    <desc>Created with Sketch.</desc>
    <defs>
        <polygon id="path-1" points="0 0.28262027 0 26.1181473 17.4876459 26.1181473 17.4876459 0.28262027 0 0.28262027"></polygon>
        <path d="M72.0768095,0.217256757 L0.480202703,0.217256757 C0.27972973,0.217256757 0.117175676,0.3795 0.117175676,0.580283784 L0.117175676,6.20160811 C0.117175676,6.40208108 0.27972973,6.56432432 0.480202703,6.56432432 L72.0768095,6.56432432 L72.0768095,0.217256757 Z" id="path-3"></path>
        <path d="M0.252347297,0.217256757 L44.0835405,0.217256757 C44.091151,0.217256757 44.098706,0.217490576 44.1061986,0.217951397 L44.1061986,6.56359106 C44.0985014,6.56407745 44.090739,6.56432432 44.0829189,6.56432432 L0.252347297,6.56432432 L0.252347297,0.217256757 L0.252347297,0.217256757 Z" id="path-5"></path>
        <path d="M0.281781081,0.217256757 L30.7186757,0.217256757 C30.9191486,0.217256757 31.0810811,0.3795 31.0810811,0.579351351 L31.0810811,6.20160811 C31.0810811,6.40208108 30.918527,6.56432432 30.7180541,6.56432432 L0.281781081,6.56432432 L0.281781081,0.217256757 Z" id="path-7"></path>
    </defs>
    <g id="brand/logo-white" stroke="none" stroke-width="1" fill="none" fill-rule="evenodd">
        <g id="Page-1" transform="translate(13.000000, 0.000000)">
            <g id="Group-26" transform="translate(0.000000, 0.033257)">
                <g id="Group-3" transform="translate(0.000000, 0.621622)">
                    <mask id="mask-2" fill="white">
                        <use xlink:href="#path-1"></use>
                    </mask>
                    <g id="Clip-2"></g>
                    <path d="M7.5647,22.1702284 C8.37374054,22.1702284 9.10507838,22.0340932 9.76803784,21.7580932 C10.4294432,21.4817824 10.9951189,21.0920257 11.4666189,20.5931743 C11.9378081,20.0899716 12.2999027,19.4860662 12.5581865,18.7789716 C12.8170919,18.0756068 12.9454568,17.2895662 12.9454568,16.4289311 C12.9454568,15.5679851 12.8170919,14.7844311 12.5581865,14.0767149 C12.2999027,13.37335 11.9378081,12.7694446 11.4666189,12.2665527 C10.9951189,11.7636608 10.4294432,11.3757689 9.76803784,11.1010122 C9.10507838,10.8265662 8.37374054,10.6885662 7.5647,10.6885662 C7.18395676,10.6885662 6.80134865,10.7177824 6.42153784,10.7790122 C6.03861892,10.8386878 5.70356486,10.8924581 5.41388919,10.9397014 C5.05365946,11.0357419 4.70741622,11.1311608 4.36987568,11.2262689 L4.36987568,21.6322149 C4.70741622,21.7279446 5.05365946,21.8115527 5.41388919,21.88335 C5.72625405,21.9793905 6.0697,22.0502554 6.43645676,22.0981203 C6.80694324,22.1475392 7.18395676,22.1702284 7.5647,22.1702284 L7.5647,22.1702284 Z M4.36987568,7.28052568 C4.70741622,7.18448514 5.05365946,7.08813378 5.41388919,6.99209324 C5.72625405,6.92091757 6.0697,6.86124189 6.43645676,6.81182297 C6.80694324,6.76551216 7.18395676,6.7406473 7.5647,6.7406473 C9.04353784,6.7406473 10.3896595,6.99209324 11.6008892,7.49498514 C12.8121189,7.99601216 13.8533351,8.68352568 14.7285784,9.55659324 C15.6004027,10.4315257 16.2804568,11.4587554 16.7622135,12.643877 C17.2452135,13.8289986 17.4876459,15.0896473 17.4876459,16.4289311 C17.4876459,17.7697689 17.2452135,19.0301068 16.7622135,20.21585 C16.2804568,21.3984851 15.6004027,22.4278905 14.7285784,23.3009581 C13.8533351,24.1758905 12.8121189,24.8621608 11.6008892,25.3634986 C10.3896595,25.8663905 9.04353784,26.1181473 7.5647,26.1181473 C6.60087568,26.1181473 5.66595676,26.0336068 4.75714595,25.8663905 C3.84895676,25.6985527 3.03587568,25.5077149 2.31914595,25.2913905 C1.51072703,25.0772419 0.738362162,24.8152284 -0.000124324324,24.5028635 L-0.000124324324,0.438958108 C-0.000124324324,0.352241892 0.0639027027,0.28262027 0.145645946,0.28262027 L4.22255135,0.28262027 C4.30274054,0.28262027 4.36987568,0.352241892 4.36987568,0.438958108 L4.36987568,7.28052568 Z" id="Fill-1" fill="#FFFFFF" mask="url(#mask-2)"></path>
                </g>
                <path d="M73.4556595,24.5598973 C73.4904703,24.6307622 73.4749297,24.7171676 73.4168081,24.7637892 C72.947173,25.1361405 72.4215919,25.4680865 71.8375784,25.7565189 C71.2538757,26.0440189 70.5946459,26.2954649 69.8542946,26.5099243 C69.1136324,26.7274919 68.2610784,26.8331676 67.2975649,26.8331676 C65.8168622,26.8331676 64.4729162,26.5820324 63.2604432,26.0794514 C62.0529432,25.5765595 61.0092405,24.8896676 60.1336865,24.0166 C59.2612405,23.1441541 58.5821189,22.1159919 58.1000514,20.9324243 C57.6179838,19.7460595 57.3764838,18.4860324 57.3764838,17.1448838 C57.3764838,15.8071541 57.6179838,14.5437081 58.1000514,13.3595189 C58.5821189,12.1756405 59.2612405,11.1474784 60.1336865,10.2722351 C61.0092405,9.40134324 62.0529432,8.71351892 63.2604432,8.21062703 C64.4729162,7.70773514 65.8168622,7.45628919 67.2975649,7.45628919 C68.2153892,7.45628919 69.0455649,7.55854595 69.7856054,7.76243784 C70.5259568,7.96415405 71.166227,8.18607297 71.7020649,8.42508649 C72.2633892,8.71351892 72.7731189,9.0206 73.2374703,9.34943784 C73.3024297,9.39699189 73.3207676,9.48743784 73.2850243,9.5583027 L71.7443351,12.5125595 C71.7039297,12.5936811 71.6082,12.6173027 71.5388892,12.5688162 C71.2361595,12.3658568 70.9107405,12.1815459 70.5610784,12.0149514 C70.1775378,11.8480459 69.7467541,11.705073 69.2631324,11.5841676 C68.7816865,11.463573 68.2402541,11.4042081 67.6347946,11.4042081 C66.8260649,11.4042081 66.0751459,11.5596135 65.3820378,11.8719784 C64.6861324,12.1834108 64.0794297,12.6014514 63.5641054,13.1254784 C63.0475378,13.6532351 62.6444162,14.2624243 62.3541189,14.9570865 C62.0632,15.6508162 61.9164973,16.3787351 61.9164973,17.1448838 C61.9164973,17.9110324 62.0632,18.6408162 62.3541189,19.3345459 C62.6444162,20.0273432 63.0475378,20.6387081 63.5641054,21.1642892 C64.0794297,21.6917351 64.6861324,22.1103973 65.3820378,22.4196541 C66.0751459,22.7301541 66.8260649,22.8861811 67.6347946,22.8861811 C68.2819027,22.8861811 68.8659162,22.8137622 69.3827946,22.6701676 C69.8990514,22.528127 70.3357405,22.3618432 70.694727,22.1694514 C71.0655243,21.9829649 71.4008892,21.7772081 71.7020649,21.5540459 C71.7744838,21.4990324 71.8736324,21.5238973 71.9171459,21.6056405 L73.4556595,24.5598973 Z" id="Fill-4" fill="#FFFFFF"></path>
                <path d="M87.9715189,17.1447284 C87.9715189,16.2834716 87.8425324,15.5024041 87.583627,14.794377 C87.3278297,14.0891473 86.9781676,13.4855527 86.5414784,12.9820392 C86.1057216,12.4791473 85.5907081,12.0921878 84.9942622,11.8183635 C84.4012351,11.5423635 83.7671811,11.4040527 83.0955189,11.4040527 C82.4229243,11.4040527 81.7885595,11.5423635 81.1949108,11.8183635 C80.6000189,12.0921878 80.0868703,12.4791473 79.648627,12.9820392 C79.210073,13.4855527 78.8625865,14.0891473 78.6058568,14.794377 C78.347573,15.5024041 78.2192081,16.2834716 78.2192081,17.1447284 C78.2192081,18.0069176 78.347573,18.7914041 78.6058568,19.4947689 C78.8625865,20.2018635 79.210073,20.8063905 79.648627,21.3095932 C80.0868703,21.8124851 80.6000189,22.1994446 81.1949108,22.4732689 C81.7885595,22.7477149 82.4229243,22.8863365 83.0955189,22.8863365 C83.7671811,22.8863365 84.4012351,22.7477149 84.9942622,22.4732689 C85.5907081,22.1994446 86.1057216,21.8124851 86.5414784,21.3095932 C86.9781676,20.8063905 87.3278297,20.2018635 87.583627,19.4947689 C87.8425324,18.7914041 87.9715189,18.0069176 87.9715189,17.1447284 M73.6788838,17.1447284 C73.6788838,15.8051338 73.9178973,14.5457284 74.3996541,13.3593635 C74.8838973,12.1745527 75.5456135,11.147323 76.3869784,10.2723905 C77.2277216,9.40118784 78.2192081,8.71336351 79.3623703,8.21078243 C80.5067757,7.70789054 81.7497081,7.45613378 83.0955189,7.45613378 C84.4385324,7.45613378 85.6907892,7.70789054 86.8442081,8.21078243 C87.9998027,8.71336351 88.9984378,9.40118784 89.8382486,10.2723905 C90.6780595,11.147323 91.3338703,12.1745527 91.8056811,13.3593635 C92.2771811,14.5457284 92.5109108,15.8051338 92.5109108,17.1447284 C92.5109108,18.485877 92.2771811,19.7459041 91.8056811,20.9325797 C91.3338703,22.1139716 90.6780595,23.1443095 89.8382486,24.0164446 C88.9984378,24.8895122 87.9998027,25.5779581 86.8442081,26.0792959 C85.6907892,26.581877 84.4385324,26.833323 83.0955189,26.833323 C81.7497081,26.833323 80.5067757,26.581877 79.3623703,26.0792959 C78.2192081,25.5779581 77.2277216,24.8895122 76.3869784,24.0164446 C75.5456135,23.1443095 74.8838973,22.1139716 74.3996541,20.9325797 C73.9178973,19.7459041 73.6788838,18.485877 73.6788838,17.1447284" id="Fill-6" fill="#FFFFFF"></path>
                <path d="M110.279468,11.4005095 C109.897481,11.4005095 109.531968,11.4430905 109.185103,11.5263878 C108.836995,11.6134149 108.54017,11.6889419 108.293697,11.7566986 C107.982265,11.8894149 107.68917,12.02555 107.419697,12.1619959 L107.419697,25.9551581 C107.419697,26.0421851 107.353495,26.1118068 107.272995,26.1118068 L103.197643,26.1118068 C103.114657,26.1118068 103.048143,26.0421851 103.048143,25.9551581 L103.048143,9.06942838 C103.676603,8.75955 104.360076,8.48323919 105.100738,8.24391486 C105.774265,8.02790135 106.511819,7.84203649 107.318062,7.68663108 C108.126792,7.5318473 109.00017,7.45476622 109.94317,7.45476622 C110.771481,7.45476622 111.527684,7.52656351 112.2124,7.67015811 C112.896495,7.81313108 113.495116,7.9803473 114.012616,8.17180676 C114.5699,8.37165811 115.079941,8.5898473 115.54367,8.82886081 C115.609873,8.86367162 115.643751,8.94603649 115.619508,9.02063108 L114.541616,12.5004689 C114.511468,12.5980635 114.405481,12.6384689 114.325603,12.5865635 C114.026603,12.3938608 113.69963,12.2163878 113.338778,12.0466851 C112.935346,11.8735635 112.480941,11.7256176 111.976805,11.5947662 C111.472981,11.4654689 110.906684,11.4005095 110.279468,11.4005095" id="Fill-8" fill="#FFFFFF"></path>
                <path d="M117.965353,8.17099865 L122.040704,8.17099865 C122.122447,8.17099865 122.187407,8.24372838 122.187407,8.32982297 L122.187407,25.9552824 C122.187407,26.0423095 122.122447,26.1119311 122.040704,26.1119311 L118.032177,26.1119311 C117.912826,26.1119311 117.817718,26.0102959 117.817718,25.8831743 L117.817718,8.32982297 C117.817718,8.24372838 117.881123,8.17099865 117.965353,8.17099865 M117.312961,2.96989054 C117.312961,2.25191757 117.569691,1.62345811 118.085947,1.08357973 C118.600961,0.545566216 119.240299,0.277647297 120.00365,0.277647297 C120.763272,0.277647297 121.403542,0.545566216 121.918245,1.08357973 C122.435745,1.62345811 122.694028,2.25191757 122.694028,2.96989054 C122.694028,3.68537703 122.435745,4.3141473 121.918245,4.85278243 C121.403542,5.39141757 120.763272,5.65995811 120.00365,5.65995811 C119.240299,5.65995811 118.600961,5.39141757 118.085947,4.85278243 C117.569691,4.3141473 117.312961,3.68537703 117.312961,2.96989054" id="Fill-10" fill="#FFFFFF"></path>
                <path d="M133.538373,11.3100635 C133.154832,11.3100635 132.775022,11.3395905 132.391792,11.3986446 C132.01167,11.4586311 131.67413,11.5120905 131.383832,11.5615095 C131.027022,11.6553743 130.677359,11.7514149 130.342927,11.8477662 L130.342927,22.2537122 C130.677359,22.3497527 131.027022,22.4311851 131.383832,22.5032932 C131.69713,22.6008878 132.041819,22.6720635 132.409197,22.7177527 C132.780305,22.7690365 133.154832,22.7917257 133.538373,22.7917257 C134.343684,22.7917257 135.076886,22.6527932 135.739846,22.3795905 C136.40063,22.1051446 136.967238,21.7156986 137.438738,21.2128068 C137.909927,20.7099149 138.271711,20.1056986 138.530305,19.3986041 C138.787346,18.69555 138.917265,17.9110635 138.917265,17.0507392 C138.917265,16.1879284 138.787346,15.4062392 138.530305,14.700077 C138.271711,13.9936041 137.909927,13.389077 137.438738,12.8864959 C136.967238,12.3851581 136.40063,11.9972662 135.739846,11.7225095 C135.076886,11.4461986 134.343684,11.3100635 133.538373,11.3100635 M130.193427,32.8377527 L126.119008,32.8377527 C126.036954,32.8377527 125.969508,32.7656446 125.969508,32.6804824 L125.969508,9.08559054 C125.969508,9.01969865 126.008049,8.96126622 126.064616,8.93702297 C126.776684,8.64237432 127.517346,8.38036081 128.290954,8.15160405 C129.052441,7.93621216 129.877332,7.75003649 130.763454,7.59432027 C131.647711,7.43860405 132.572684,7.36245541 133.538373,7.36245541 C135.017211,7.36245541 136.360535,7.61359054 137.572386,8.11492838 C138.781751,8.61782027 139.826076,9.30533378 140.702251,10.1780905 C141.574386,11.0514689 142.251022,12.0814959 142.734954,13.2635095 C143.217022,14.4489419 143.457589,15.7111446 143.457589,17.0507392 C143.457589,18.3894014 143.217022,19.65005 142.734954,20.8354824 C142.251022,22.0218473 141.574386,23.047523 140.702251,23.9224554 C139.826076,24.7958338 138.781751,25.4839689 137.572386,25.9853068 C136.360535,26.4878878 135.017211,26.7399554 133.538373,26.7399554 C133.154832,26.7399554 132.775022,26.7079419 132.391792,26.6479554 C132.01167,26.5892122 131.67413,26.5341986 131.383832,26.4878878 C131.027022,26.3912257 130.677359,26.2954959 130.342927,26.2013203 L130.342927,32.6804824 C130.342927,32.7656446 130.276724,32.8377527 130.193427,32.8377527" id="Fill-12" fill="#FFFFFF"></path>
                <path d="M146.775743,26.1118068 C146.693068,26.1118068 146.628108,26.0406311 146.628108,25.9551581 L146.628108,4.76252297 L146.615676,1.15556351 C146.615676,1.06605 146.684365,0.994874324 146.767041,0.994874324 L150.852027,0.994874324 C150.934703,0.994874324 150.999662,1.06605 150.999662,1.15556351 L150.999662,25.9551581 C150.999662,26.0406311 150.934703,26.1118068 150.852027,26.1118068" id="Fill-14" fill="#FFFFFF"></path>
                <line x1="150.85212" y1="26.1118068" x2="146.775836" y2="26.1118068" id="Fill-16" fill="#FFFFFF"></line>
                <path d="M166.901054,15.4352689 C166.722338,14.2641338 166.250527,13.2825932 165.489351,12.4934446 C164.726,11.7030527 163.796054,11.308323 162.697027,11.308323 C161.599554,11.308323 160.660595,11.7030527 159.888541,12.4934446 C159.116486,13.2825932 158.640014,14.2641338 158.458811,15.4352689 L166.901054,15.4352689 Z M169.365162,19.2035392 L158.458811,19.2035392 C158.817486,20.1844581 159.410203,21.0283095 160.241622,21.7329176 C161.072108,22.4381473 162.282095,22.79185 163.873135,22.79185 C164.548527,22.79185 165.1515,22.7197419 165.690135,22.5761473 C166.227838,22.4331743 166.688459,22.2662689 167.067959,22.0732554 C167.458649,21.8870797 167.804892,21.681323 168.111662,21.4572284 C168.185324,21.4037689 168.28323,21.4280122 168.3255,21.5097554 L169.864014,24.4621473 C169.899446,24.533323 169.88173,24.6212824 169.820189,24.6679041 C169.331284,25.0418095 168.784878,25.3731338 168.179419,25.6615662 C167.595716,25.9499986 166.917216,26.2014446 166.143297,26.4159041 C165.369689,26.6284986 164.502527,26.7397689 163.537459,26.7397689 C162.058622,26.7397689 160.718716,26.4923635 159.517743,26.0043905 C158.319878,25.5129986 157.29327,24.8360527 156.44227,23.9751068 C155.590649,23.1144716 154.934838,22.0909716 154.474216,20.9074041 C154.013284,19.7235257 153.783284,18.4370797 153.783284,17.0505527 C153.783284,15.6155392 154.001473,14.3042284 154.440959,13.1219041 C154.878581,11.9367824 155.494297,10.9132824 156.290905,10.0529581 C157.085649,9.19201216 158.027716,8.52687703 159.116486,8.06003919 C160.201527,7.59413378 161.395662,7.36226892 162.697027,7.36226892 C163.998081,7.36226892 165.190351,7.59413378 166.278811,8.06003919 C167.365405,8.52687703 168.30623,9.19201216 169.103149,10.0529581 C169.899446,10.9132824 170.514851,11.9367824 170.954338,13.1219041 C171.383257,14.286823 171.603311,15.5710932 171.608595,16.9790662 C171.608595,17.0222689 171.590878,17.0664041 171.559486,17.09935 L169.467108,19.1609581 C169.438824,19.1879986 169.401838,19.2035392 169.365162,19.2035392 L169.365162,19.2035392 Z" id="Fill-18" fill="#FFFFFF"></path>
                <path d="M191.148555,24.5668595 C191.148555,25.6438189 190.93565,26.6778865 190.51015,27.669373 C190.083096,28.6617919 189.455258,29.5416973 188.626947,30.3072243 C187.796772,31.0739946 186.792853,31.6834946 185.616434,32.1388324 C184.439704,32.5916838 183.089231,32.8182649 181.56315,32.8182649 C180.557366,32.8182649 179.648245,32.7048189 178.839515,32.4797919 C178.03265,32.2516568 177.349799,32.0067378 176.789096,31.7431703 C176.117434,31.4317378 175.520988,31.0739946 175.005664,30.6662108 L176.615042,27.5779946 C176.653272,27.5002919 176.746826,27.4735622 176.817069,27.5211162 C177.188488,27.7495622 177.604974,27.9615351 178.067461,28.1551703 C178.51565,28.3466297 179.030974,28.5144676 179.613123,28.6580622 C180.197136,28.8013459 180.846109,28.8725216 181.56315,28.8725216 C182.707866,28.8725216 183.620718,28.6701838 184.304501,28.2633324 C184.990772,27.8561703 185.508893,27.4005216 185.869745,26.8979405 C186.293691,26.3235622 186.595799,25.6668189 186.775758,24.9246027 L186.775758,24.5668595 C186.374501,24.6386568 185.969826,24.6977108 185.56515,24.7471297 C185.18565,24.7934405 184.781285,24.8360216 184.356096,24.8711432 C183.92842,24.9071973 183.501055,24.9246027 183.07742,24.9246027 C181.642407,24.9246027 180.374609,24.7225757 179.277447,24.3154135 C178.17842,23.9082514 177.247853,23.3444405 176.486366,22.6292649 C175.723326,21.9116027 175.145218,21.0615351 174.752664,20.0803054 C174.36415,19.0996973 174.165231,18.0227378 174.165231,16.8519135 L174.165231,7.50241351 C174.165231,7.41321081 174.232366,7.3411027 174.315042,7.3411027 L178.389461,7.3411027 C178.472136,7.3411027 178.538961,7.41321081 178.538961,7.50241351 L178.538961,16.8519135 C178.538961,18.0227378 178.935866,19.0055216 179.732785,19.7937378 C180.527528,20.5822649 181.642407,20.9769946 183.07742,20.9769946 C183.54892,20.9769946 184.000218,20.9471568 184.439704,20.8881027 C184.876082,20.8287378 185.275164,20.7625351 185.63415,20.6910486 C186.03665,20.6192514 186.41988,20.5356432 186.775758,20.4399135 L186.775758,7.50241351 C186.775758,7.41321081 186.843826,7.3411027 186.926501,7.3411027 L191.000609,7.3411027 C191.08142,7.3411027 191.148555,7.41321081 191.148555,7.50241351 L191.148555,24.5668595 Z" id="Fill-20" fill="#FFFFFF"></path>
                <path d="M38.1746851,25.7855176 L38.1746851,9.30384189 C38.1746851,9.16366622 38.2582932,9.03996351 38.3798203,8.99645 C39.1456581,8.71703108 39.9394689,8.46558514 40.76405,8.24553108 C41.5942257,8.03138243 42.4713338,7.84769324 43.4015905,7.69042297 C44.3312257,7.53719324 45.2788878,7.45607162 46.2433338,7.45607162 C47.6764824,7.45607162 48.9495635,7.6596527 50.0572932,8.06557162 C51.1690635,8.47459865 52.0974554,9.03623378 52.8502392,9.75296351 C53.5992932,10.4703149 54.1714959,11.3188284 54.5643608,12.2997473 C54.9528743,13.2815986 55.1508608,14.3566932 55.1508608,15.5265851 L55.1508608,25.7855176 C55.1508608,25.963923 55.0165905,26.1072068 54.8493743,26.1072068 L51.0826581,26.1072068 C50.9176176,26.1072068 50.7802392,25.963923 50.7802392,25.7855176 L50.7802392,15.5265851 C50.7802392,14.3566932 50.383023,13.3735986 49.5879689,12.5866257 C48.7913608,11.7971662 47.6764824,11.4024365 46.2433338,11.4024365 C45.7736986,11.4024365 45.3196041,11.4462608 44.8804284,11.5295581 C44.4533743,11.611923 44.0605095,11.68745 43.7077392,11.7530311 C43.6937527,11.7545851 43.6813203,11.7583149 43.6676446,11.7635986 C43.346577,11.8702068 43.04105,11.9777473 42.7460905,12.0874635 C42.6245635,12.1319095 42.5471716,12.2525041 42.5471716,12.3901932 L42.5471716,25.7855176 C42.5471716,25.963923 42.4101041,26.1072068 42.2431986,26.1072068 L38.4764824,26.1072068 C38.3111311,26.1072068 38.1746851,25.963923 38.1746851,25.7855176" id="Fill-22" fill="#FFFFFF"></path>
                <path d="M30.9923446,22.2254595 C30.6321149,22.3215 30.2395608,22.4060405 29.8134392,22.4772162 C29.4556959,22.5483919 29.0460473,22.6149054 28.588223,22.6748919 C28.1266689,22.7358108 27.6393176,22.765027 27.1230608,22.765027 C25.6889797,22.765027 24.6859932,22.5312973 24.1131689,22.0644595 C23.5434527,21.597 23.2568851,21.0558784 23.2568851,20.4327027 C23.2568851,19.8107703 23.5434527,19.2659189 24.1131689,18.7984595 C24.6859932,18.3325541 25.6889797,18.0985135 27.1230608,18.0985135 C27.6393176,18.0985135 28.1207635,18.1168514 28.5698851,18.1522838 C29.0196284,18.1889595 29.4326959,18.2312297 29.8134392,18.2778514 C30.2395608,18.3272703 30.6321149,18.3857027 30.9923446,18.4584324 L30.9923446,22.2254595 Z M35.3638986,15.2275541 C35.3638986,12.7889324 34.6692365,10.8650135 33.2771149,9.45206757 C31.8877905,8.04191892 29.8361284,7.33575676 27.1230608,7.33575676 C26.1163446,7.33575676 25.2230743,7.42962162 24.4494662,7.62263514 C23.6764797,7.81409459 22.9986014,8.04191892 22.4158311,8.303 C21.8153446,8.58987838 21.2913176,8.89727027 20.8443716,9.22735135 C20.7794122,9.27272973 20.7635608,9.36131081 20.7986824,9.43497297 L22.3443446,12.4010405 C22.3850608,12.4775 22.4711554,12.5039189 22.5429527,12.4638243 C22.9131284,12.2543378 23.3184257,12.0625676 23.759777,11.8913108 C24.1865203,11.7477162 24.6859932,11.6109595 25.2578851,11.4788649 C25.8300878,11.3489459 26.4520203,11.2799459 27.1230608,11.2799459 C28.4691824,11.2799459 29.4485473,11.5683784 30.0664392,12.1427568 C30.6830878,12.7168243 30.9923446,13.5062838 30.9923446,14.5102027 C30.6548041,14.4380946 30.2846284,14.3809054 29.8811959,14.3302432 C29.5225203,14.2848649 29.1082095,14.2413514 28.6379527,14.2043649 C28.1664527,14.1717297 27.6616959,14.1540135 27.1230608,14.1540135 C25.6439122,14.1540135 24.3761149,14.3128378 23.3240203,14.6360811 C22.2703716,14.9590135 21.402277,15.3957027 20.7169392,15.9470811 C20.0319122,16.497527 19.5290203,17.1548919 19.2045338,17.9197973 C18.8784932,18.6847027 18.7168716,19.5229595 18.7168716,20.4327027 C18.7168716,21.3163378 18.8784932,22.149 19.2045338,22.9254054 C19.5290203,23.7042973 20.0319122,24.3666351 20.7169392,24.9158378 C21.402277,25.4681486 22.2703716,25.904527 23.3240203,26.2277703 C24.3761149,26.5503919 25.6439122,26.7129459 27.1230608,26.7129459 C28.2227095,26.7129459 29.2530473,26.6514054 30.2171824,26.5329865 C31.10175,26.4207838 31.9173176,26.2899324 32.6682365,26.1416757 L35.3638986,23.5908514 L35.3638986,15.2275541 Z" id="Fill-24" fill="#FFFFFF"></path>
            </g>
            <g id="Group-36" transform="translate(102.878378, 38.884608)">
                <g id="Group-29">
                    <mask id="mask-4" fill="white">
                        <use xlink:href="#path-3"></use>
                    </mask>
                    <g id="Clip-28"></g>
                    <path d="M70.7142149,23.0000622 L-12.5140824,23.0000622 C-13.2665554,23.0000622 -13.8763662,22.3899405 -13.8763662,21.6377784 L-13.8763662,-3.77442432 C-13.8763662,-4.5268973 -13.2662446,-5.13670811 -12.5137716,-5.13670811 L70.7145257,-5.13670811 C71.4669986,-5.13670811 72.0768095,-4.5268973 72.0768095,-3.77473514 L72.0768095,21.6374676 C72.0768095,22.3899405 71.4666878,23.0000622 70.7142149,23.0000622" id="Fill-27" fill="#E22D36" mask="url(#mask-4)"></path>
                </g>
                <g id="Group-32" transform="translate(43.824324, 0.000000)">
                    <mask id="mask-6" fill="white">
                        <use xlink:href="#path-5"></use>
                    </mask>
                    <g id="Clip-31"></g>
                    <path d="M44.1061986,23.0000622 L1.46917162,23.0000622 C0.797509459,23.0000622 0.252347297,21.7244946 0.252347297,20.1521027 L0.252347297,-2.28812703 C0.252347297,-3.86114054 0.797509459,-5.13670811 1.46917162,-5.13670811 L44.1061986,-5.13670811" id="Fill-30" fill="#F2AD4B" mask="url(#mask-6)"></path>
                </g>
                <g id="Group-35" transform="translate(57.189189, 0.000000)">
                    <mask id="mask-8" fill="white">
                        <use xlink:href="#path-7"></use>
                    </mask>
                    <g id="Clip-34"></g>
                    <path d="M30.3567676,23.0000622 L1.64344324,23.0000622 C0.891281081,23.0000622 0.281781081,22.3902514 0.281781081,21.6380892 L0.281781081,-3.77442432 C0.281781081,-4.5268973 0.891591892,-5.13670811 1.64437568,-5.13670811 L30.3567676,-5.13670811 C31.1092405,-5.13670811 31.7193622,-4.5268973 31.7193622,-3.77442432 L31.7193622,21.6374676 C31.7193622,22.3899405 31.1092405,23.0000622 30.3567676,23.0000622" id="Fill-33" fill="#894590" mask="url(#mask-8)"></path>
                </g>
            </g>
        </g>
    </g>
</svg>