<?xml version="1.0" encoding="UTF-8"?>
<svg width="198px" height="46px" viewBox="0 0 198 46" version="1.1" xmlns="http://www.w3.org/2000/svg" xmlns:xlink="http://www.w3.org/1999/xlink">
    <!-- Generator: Sketch 54.1 (76490) - https://sketchapp.com -->
    <title>Page 1</title>
    <desc>Created with Sketch.</desc>
    <defs>
        <path d="M73.6585551,0.200891266 L0.490741308,0.200891266 C0.285868723,0.200891266 0.119747232,0.350698752 0.119747232,0.535805704 L0.119747232,5.72626203 C0.119747232,5.91136898 0.285868723,6.06117647 0.490741308,6.06117647 L73.6585551,6.06117647 L73.6585551,0.200891266 L73.6585551,0.200891266 Z" id="path-1"></path>
        <path d="M0.257821825,0.200891266 L45.0510049,0.200891266 C45.0588678,0.200891266 45.0666733,0.201112187 45.0744144,0.201547526 L45.0744144,6.06048482 C45.0664649,6.06094358 45.0584474,6.06117647 45.0503697,6.06117647 L0.257821825,6.06117647 L0.257821825,0.200891266 L0.257821825,0.200891266 Z" id="path-3"></path>
        <path d="M0.287901567,0.200891266 L31.3928326,0.200891266 C31.5973876,0.200891266 31.7631914,0.350411765 31.7631914,0.534944742 L31.7631914,5.72626203 C31.7631914,5.91136898 31.5970699,6.06117647 31.3921974,6.06117647 L0.287901567,6.06117647 L0.287901567,0.200891266 L0.287901567,0.200891266 Z" id="path-5"></path>
    </defs>
    <g id="Symbols" stroke="none" stroke-width="1" fill="none" fill-rule="evenodd">
        <g id="brand/logo">
            <g id="Page-1">
                <g id="Group-25" fill="#4F2D7F">
                    <path d="M7.81712209,23.7112029 C8.65316934,23.7112029 9.40924126,23.5692547 10.0940099,23.2821248 C10.7774938,22.9946716 11.3623735,22.5891977 11.8496128,22.0702299 C12.3365308,21.5467353 12.7107125,20.918477 12.9776181,20.1828684 C13.2448449,19.45114 13.3774947,18.6334019 13.3774947,17.7380612 C13.3774947,16.8423971 13.2448449,16.0275691 12.9776181,15.2909905 C12.7107125,14.5592621 12.3365308,13.9313272 11.8496128,13.4078326 C11.3623735,12.8849846 10.7774938,12.4814508 10.0940099,12.1952909 C9.40924126,11.9097778 8.65316934,11.7662129 7.81712209,11.7662129 C7.42366919,11.7662129 7.02828918,11.7969306 6.63612103,11.8603061 C6.24009865,11.9227116 5.89418129,11.9783268 5.59451472,12.0277985 C5.22226011,12.1277119 4.86445886,12.2266553 4.51565083,12.3255987 L4.51565083,23.1511703 C4.86445886,23.2507604 5.22226011,23.3380634 5.59451472,23.412756 C5.91730669,23.5126694 6.27221725,23.5863919 6.65121678,23.6358636 C7.03407053,23.6872754 7.42366919,23.7112029 7.81712209,23.7112029 L7.81712209,23.7112029 Z M4.51565083,8.22074118 C4.86445886,8.12082775 5.22226011,8.02059097 5.59451472,7.92067754 C5.91730669,7.84663167 6.27221725,7.78454954 6.65121678,7.73313777 C7.03407053,7.68495945 7.42366919,7.6590919 7.81712209,7.6590919 C9.34532524,7.6590919 10.736382,7.92067754 11.9880439,8.44384883 C13.2397059,8.9654034 14.3160003,9.68031794 15.220139,10.5885925 C16.121387,11.498807 16.8241421,12.5674604 17.3216592,13.8003727 C17.8207823,15.033285 18.0713075,16.34477 18.0713075,17.7380612 C18.0713075,19.1329691 17.8207823,20.4441307 17.3216592,21.6776898 C16.8241421,22.9080153 16.121387,23.9789321 15.220139,24.8872066 C14.3160003,25.7974212 13.2397059,26.5113657 11.9880439,27.0329202 C10.736382,27.5560915 9.34532524,27.8180005 7.81712209,27.8180005 C6.82144538,27.8180005 5.85499659,27.7303742 4.91584863,27.5560915 C3.97734303,27.3814855 3.13712036,27.1829521 2.39646537,26.9582277 C1.56138167,26.73512 0.76291319,26.4625407 9.63558106e-05,26.1375795 L9.63558106e-05,1.10328354 C9.63558106e-05,1.01339378 0.0662606791,0.940641287 0.150732606,0.940641287 L4.36340865,0.940641287 C4.44659583,0.940641287 4.51565083,1.01339378 4.51565083,1.10328354 L4.51565083,8.22074118 Z" id="Fill-1"></path>
                    <path d="M75.9076301,25.5502243 C75.9439242,25.6239469 75.9275437,25.7138366 75.8678031,25.7623383 C75.382491,26.1497049 74.8390442,26.4950368 74.2358568,26.7951004 C73.6323483,27.094194 72.9511127,27.3557797 72.1860476,27.5788873 C71.4206612,27.8052284 70.5399691,27.9151655 69.5439712,27.9151655 C68.013841,27.9151655 66.6250325,27.6539032 65.372407,27.1310553 C64.1242781,26.607884 63.0460565,25.8936161 62.1409543,24.9850183 C61.2393851,24.0777138 60.5375936,23.0077671 60.0394341,21.7764715 C59.5412745,20.5422658 59.291713,19.2314275 59.291713,17.8361962 C59.291713,16.4445218 59.5412745,15.1301267 60.0394341,13.8981844 C60.5375936,12.6668888 61.2393851,11.5969421 62.1409543,10.6864041 C63.0460565,9.78039304 64.1242781,9.06483182 65.372407,8.54166053 C66.6250325,8.01848923 68.013841,7.75690359 69.5439712,7.75690359 C70.4924336,7.75690359 71.3503215,7.86328391 72.1150654,8.07539785 C72.8801306,8.28524839 73.5417738,8.51611632 74.0954985,8.76476818 C74.6755605,9.06483182 75.2023056,9.38429612 75.6821576,9.72639452 C75.7496066,9.77586622 75.7682354,9.86995945 75.731299,9.94368198 L74.139501,13.0170708 C74.0974257,13.1014637 73.9985004,13.1260379 73.9268759,13.0755962 C73.6140407,12.8647756 73.2780801,12.672709 72.9164246,12.4993964 C72.5204022,12.3257604 72.0749172,12.177022 71.5751517,12.051241 C71.0776345,11.9257834 70.5181285,11.8640246 69.8924581,11.8640246 C69.056732,11.8640246 68.2807466,12.0256968 67.5645017,12.3506579 C66.8453662,12.6746491 66.218411,13.1095473 65.6858846,13.654706 C65.1520734,14.2037449 64.7354951,14.8375 64.4358285,15.5601748 C64.1351984,16.2818795 63.9835986,17.0391522 63.9835986,17.8361962 C63.9835986,18.6332403 64.1351984,19.3927763 64.4358285,20.1141578 C64.7354951,20.8348925 65.1520734,21.470911 65.6858846,22.0176864 C66.218411,22.5664019 66.8453662,23.0019469 67.5645017,23.3236746 C68.2807466,23.6466957 69.056732,23.8090146 69.8924581,23.8090146 C70.5611674,23.8090146 71.164676,23.7336753 71.6988083,23.5846135 C72.2326195,23.4365218 72.6838859,23.2635325 73.0545346,23.0633823 C73.4380307,22.8693757 73.7842693,22.655645 74.0954985,22.4231603 C74.1703349,22.3659284 74.2727932,22.3917959 74.3177593,22.4768355 L75.9076301,25.5502243 Z" id="Fill-3"></path>
                    <path d="M90.9080137,17.8360669 C90.9080137,16.9400795 90.7747215,16.1275149 90.5071735,15.3909363 C90.2428374,14.6572678 89.8815031,14.0293329 89.4305579,13.5055149 C88.9802551,12.982667 88.4477286,12.5801031 87.8316938,12.2949134 C87.2185497,12.0077835 86.5633302,11.8638952 85.8692472,11.8638952 C85.1742006,11.8638952 84.5186599,12.0077835 83.9055157,12.2949134 C83.2904445,12.5801031 82.7601663,12.982667 82.3076152,13.5055149 C81.8541005,14.0293329 81.4950145,14.6572678 81.2297149,15.3909363 C80.9628093,16.1275149 80.8301594,16.9400795 80.8301594,17.8360669 C80.8301594,18.7333477 80.9628093,19.5491457 81.2297149,20.2808741 C81.4950145,21.0164827 81.8541005,21.6453876 82.3076152,22.1688823 C82.7601663,22.6920536 83.2904445,23.0946174 83.9055157,23.3798072 C84.5186599,23.664997 85.1742006,23.8092086 85.8692472,23.8092086 C86.5633302,23.8092086 87.2185497,23.664997 87.8316938,23.3798072 C88.4477286,23.0946174 88.9802551,22.6920536 89.4305579,22.1688823 C89.8815031,21.6453876 90.2428374,21.0164827 90.5071735,20.2808741 C90.7747215,19.5491457 90.9080137,18.7333477 90.9080137,17.8360669 M76.138595,17.8360669 C76.138595,16.4424524 76.3852659,15.1322607 76.8834254,13.898055 C77.3835121,12.6654661 78.0673172,11.5968127 78.9367678,10.6865982 C79.805576,9.78026371 80.8301594,9.06470248 82.0114817,8.54185453 C83.1944099,8.01868324 84.4788328,7.75677425 85.8692472,7.75677425 C87.257092,7.75677425 88.5511505,8.01868324 89.7433931,8.54185453 C90.9372416,9.06470248 91.9692123,9.78026371 92.837057,10.6865982 C93.7049017,11.5968127 94.3826042,12.6654661 94.8704858,13.898055 C95.357725,15.1322607 95.5989357,16.4424524 95.5989357,17.8360669 C95.5989357,19.2312981 95.357725,20.5421364 94.8704858,21.7766655 C94.3826042,23.0056977 93.7049017,24.0779078 92.837057,24.9848889 C91.9692123,25.8934868 90.9372416,26.6093714 89.7433931,27.1309259 C88.5511505,27.6537739 87.257092,27.9153595 85.8692472,27.9153595 C84.4788328,27.9153595 83.1944099,27.6537739 82.0114817,27.1309259 C80.8301594,26.6093714 79.805576,25.8934868 78.9367678,24.9848889 C78.0673172,24.0779078 77.3835121,23.0056977 76.8834254,21.7766655 C76.3852659,20.5421364 76.138595,19.2312981 76.138595,17.8360669" id="Fill-5"></path>
                    <path d="M113.960627,11.8601768 C113.56589,11.8601768 113.188175,11.904475 112.830053,11.9911313 C112.470003,12.0816677 112.16327,12.1602404 111.90857,12.2307295 C111.587063,12.3687976 111.283863,12.5104224 111.005716,12.6523706 L111.005716,27.0017498 C111.005716,27.0922863 110.936982,27.1650388 110.854116,27.1650388 L106.642725,27.1650388 C106.556647,27.1650388 106.487913,27.0922863 106.487913,27.0017498 L106.487913,9.43509353 C107.137351,9.11271913 107.843639,8.82526593 108.609026,8.57629071 C109.305036,8.35156633 110.06721,8.15852971 110.900367,7.99685749 C111.736093,7.83550862 112.638626,7.7553192 113.613104,7.7553192 C114.469386,7.7553192 115.250511,7.83001176 115.958405,7.97939689 C116.665014,8.12813533 117.283939,8.30241798 117.818714,8.50127481 C118.39428,8.70918528 118.921346,8.93617307 119.400877,9.18482494 C119.468968,9.22136286 119.503977,9.30672579 119.479246,9.38432845 L118.365373,13.0044927 C118.334218,13.1060229 118.224372,13.1480576 118.141827,13.0943825 C117.832846,12.8935856 117.494959,12.7089559 117.122062,12.5324098 C116.705162,12.352307 116.235588,12.1987184 115.714624,12.062267 C115.194303,11.9277558 114.609102,11.8601768 113.960627,11.8601768" id="Fill-7"></path>
                    <path d="M121.903076,8.50043411 L126.114468,8.50043411 C126.19894,8.50043411 126.266389,8.57609671 126.266389,8.66566312 L126.266389,27.0018792 C126.266389,27.0924156 126.19894,27.1651681 126.114468,27.1651681 L121.972453,27.1651681 C121.848796,27.1651681 121.750513,27.0591111 121.750513,26.9268633 L121.750513,8.66566312 C121.750513,8.57609671 121.816035,8.50043411 121.903076,8.50043411 M121.229228,3.08958838 C121.229228,2.34266275 121.494528,1.6888603 122.027697,1.12721102 C122.559902,0.567501813 123.220581,0.288778912 124.009414,0.288778912 C124.794393,0.288778912 125.456036,0.567501813 125.98792,1.12721102 C126.522695,1.6888603 126.789601,2.34266275 126.789601,3.08958838 C126.789601,3.83392727 126.522695,4.48805305 125.98792,5.04840895 C125.456036,5.60876485 124.794393,5.88845779 124.009414,5.88845779 C123.220581,5.88845779 122.559902,5.60876485 122.027697,5.04840895 C121.494528,4.48805305 121.229228,3.83392727 121.229228,3.08958838" id="Fill-9"></path>
                    <path d="M137.995942,11.7660835 C137.599598,11.7660835 137.207109,11.7971246 136.811408,11.8582367 C136.418597,11.9209655 136.069468,11.9762574 135.76948,12.0279925 C135.400759,12.1253192 135.039425,12.225556 134.69415,12.3254694 L134.69415,23.151041 C135.039425,23.2509544 135.400759,23.3356707 135.76948,23.4106866 C136.093236,23.5125401 136.449431,23.5865859 136.829073,23.6337942 C137.212569,23.6871461 137.599598,23.7110735 137.995942,23.7110735 C138.828456,23.7110735 139.586134,23.5662152 140.270903,23.2819955 C140.954065,22.9964824 141.539266,22.5913318 142.026506,22.0681605 C142.513424,21.5449892 142.887605,20.916731 143.154832,20.180799 C143.420132,19.4493939 143.554709,18.6332726 143.554709,17.7382552 C143.554709,16.8406511 143.420132,16.0277632 143.154832,15.2928013 C142.887605,14.5578394 142.513424,13.9292578 142.026506,13.4060865 C141.539266,12.8848553 140.954065,12.4813214 140.270903,12.1951616 C139.586134,11.9077084 138.828456,11.7660835 137.995942,11.7660835 M134.539338,34.1618889 L130.32891,34.1618889 C130.244117,34.1618889 130.17442,34.086873 130.17442,33.9982767 L130.17442,9.45190744 C130.17442,9.38335842 130.214568,9.32289301 130.272703,9.2973488 C131.00854,8.99081828 131.774247,8.71823892 132.573358,8.48025742 C133.360264,8.25650307 134.212692,8.06249641 135.128714,7.9008242 C136.042489,7.73850529 136.998017,7.6592859 137.995942,7.6592859 C139.524145,7.6592859 140.912632,7.92054821 142.164616,8.44210277 C143.41435,8.96559741 144.493857,9.68051195 145.398959,10.5884631 C146.300207,11.497061 146.999429,12.5689478 147.499516,13.7983033 C147.997675,15.031539 148.246273,16.3446407 148.246273,17.7382552 C148.246273,19.1308997 147.997675,20.4423847 147.499516,21.6756203 C146.999429,22.909826 146.300207,23.9768627 145.398959,24.8870772 C144.493857,25.7956751 143.41435,26.5115597 142.164616,27.0331142 C140.912632,27.5559622 139.524145,27.8181945 137.995942,27.8181945 C137.599598,27.8181945 137.207109,27.78489 136.811408,27.7224846 C136.418597,27.6613725 136.069468,27.6044639 135.76948,27.5559622 C135.400759,27.4554021 135.039425,27.355812 134.69415,27.2578386 L134.69415,33.9982767 C134.69415,34.086873 134.625416,34.1618889 134.539338,34.1618889" id="Fill-11"></path>
                    <path d="M151.675223,27.1650388 C151.589788,27.1650388 151.52266,27.0906696 151.52266,27.0017498 L151.52266,4.95450973 L151.509812,1.2020976 C151.509812,1.10929774 151.580794,1.03525187 151.66623,1.03525187 L155.887578,1.03525187 C155.973014,1.03525187 156.040141,1.10929774 156.040141,1.2020976 L156.040141,27.0017498 C156.040141,27.0906696 155.973014,27.1650388 155.887578,27.1650388" id="Fill-13"></path>
                    <path d="M155.887642,27.1650388 L151.675287,27.1650388" id="Fill-15"></path>
                    <path d="M172.47234,16.0579635 C172.287658,14.8392784 171.800419,13.81848 171.013513,12.9975085 C170.22468,12.1749202 169.264013,11.7642728 168.127978,11.7642728 C166.99387,11.7642728 166.023888,12.1749202 165.225741,12.9975085 C164.427915,13.81848 163.935537,14.8392784 163.748285,16.0579635 L172.47234,16.0579635 Z M175.018703,19.9778681 L163.748285,19.9778681 C164.118934,20.9983431 164.731436,21.8762232 165.590929,22.6095684 C166.448817,23.3429136 167.699194,23.7112029 169.343346,23.7112029 C170.041283,23.7112029 170.664705,23.6358636 171.220999,23.4868018 C171.776651,23.3380634 172.252649,23.1641041 172.644817,22.9633072 C173.048548,22.7696239 173.40667,22.5558932 173.72336,22.3224385 C173.799481,22.2668233 173.900654,22.2920442 173.944336,22.3770838 L175.534207,25.4485325 C175.570822,25.5229017 175.552514,25.6140849 175.489241,25.6625865 C174.983694,26.0515699 174.419049,26.396255 173.7937,26.6963187 C173.190191,26.9963823 172.489042,27.257968 171.689289,27.4810756 C170.889857,27.7025666 169.994069,27.8180005 168.996465,27.8180005 C167.468262,27.8180005 166.083629,27.5606183 164.842566,27.0532909 C163.605036,26.54176 162.543837,25.8378392 161.66443,24.9418518 C160.78438,24.0465111 160.106678,22.9817378 159.63068,21.7504422 C159.154361,20.5188233 158.916684,19.1805007 158.916684,17.7380612 C158.916684,16.2455033 159.142156,14.8809898 159.596313,13.6509876 C160.048543,12.4180752 160.685134,11.353302 161.508012,10.4582846 C162.329285,9.56262057 163.303121,8.87066349 164.427915,8.38532349 C165.549496,7.90063019 166.783493,7.6590919 168.127978,7.6590919 C169.472463,7.6590919 170.704532,7.90063019 171.829326,8.38532349 C172.952513,8.87066349 173.924422,9.56262057 174.747943,10.4582846 C175.570822,11.353302 176.20677,12.4180752 176.660927,13.6509876 C177.104485,14.8632058 177.331564,16.199265 177.337024,17.663692 C177.337024,17.7086368 177.318716,17.7545518 177.286276,17.7891496 L175.124052,19.9338932 C175.094824,19.9617009 175.056924,19.9778681 175.018703,19.9778681 L175.018703,19.9778681 Z" id="Fill-17"></path>
                    <path d="M197.529251,25.5574673 C197.529251,26.6778557 197.309239,27.7536226 196.869535,28.7850914 C196.428225,29.8175302 195.779751,30.7329182 194.92379,31.5296389 C194.065581,32.3270063 193.028471,32.9610847 191.812461,33.4347843 C190.596772,33.9058972 189.200897,34.1416152 187.623874,34.1416152 C186.584516,34.1416152 185.645047,34.0235945 184.809321,33.7894932 C183.975522,33.5521583 183.269876,33.2973629 182.690456,33.0231669 C181.996373,32.6991757 181.380338,32.3270063 180.847491,31.9027784 L182.510592,28.6900281 C182.550098,28.609192 182.647096,28.5813844 182.719684,28.6308561 C183.10318,28.8688376 183.53357,29.0890351 184.011495,29.2904787 C184.474645,29.4896589 185.007492,29.6642649 185.608753,29.81365 C186.212261,29.9627118 186.882898,30.0367577 187.623874,30.0367577 C188.807123,30.0367577 189.750125,29.8265838 190.457056,29.4030026 C191.165913,28.9797447 191.701331,28.5053984 192.074228,27.9825505 C192.512325,27.38501 192.824518,26.7017832 193.010485,25.9296367 L193.010485,25.5574673 C192.595834,25.6321598 192.177649,25.6939186 191.759465,25.745007 C191.367297,25.7935087 190.949434,25.8378069 190.510052,25.8740215 C190.068421,25.9115294 189.626469,25.9296367 189.188692,25.9296367 C187.706097,25.9296367 186.395658,25.7197862 185.261872,25.2958816 C184.126158,24.8723004 183.164527,24.2857536 182.377621,23.5417381 C181.589431,22.7951358 180.991703,21.9107888 180.586045,20.8899904 C180.184884,19.8698387 179.979325,18.7494502 179.979325,17.5314118 L179.979325,7.8048879 C179.979325,7.71208805 180.04838,7.63707214 180.133815,7.63707214 L184.344243,7.63707214 C184.429679,7.63707214 184.498734,7.71208805 184.498734,7.8048879 L184.498734,17.5314118 C184.498734,18.7494502 184.909209,19.7718653 185.732409,20.5918668 C186.554003,21.4121916 187.706097,21.8228391 189.188692,21.8228391 C189.675931,21.8228391 190.142615,21.791798 190.596772,21.7303626 C191.047396,21.6686038 191.46012,21.6000548 191.830769,21.5253622 C192.247026,21.4506696 192.642727,21.36369 193.010485,21.2640999 L193.010485,7.8048879 C193.010485,7.71208805 193.080825,7.63707214 193.16626,7.63707214 L197.376688,7.63707214 C197.460196,7.63707214 197.529251,7.71208805 197.529251,7.8048879 L197.529251,25.5574673 Z" id="Fill-19"></path>
                    <path d="M39.4489361,26.8252684 L39.4489361,9.6789599 C39.4489361,9.53313156 39.5353351,9.40444047 39.66124,9.35917225 C40.4523212,9.06848561 41.2726304,8.80689996 42.1247369,8.57797211 C42.9826248,8.35518779 43.889333,8.16409123 44.8506428,8.00047895 C45.8113102,7.84107014 46.7902853,7.75667725 47.7872467,7.75667725 C49.2679144,7.75667725 50.5834924,7.96846785 51.7281994,8.39107902 C52.8770818,8.81627695 53.8364645,9.40056034 54.6143771,10.1461926 C55.3884354,10.8924716 55.9800601,11.7752018 56.3857181,12.7956769 C56.7872006,13.8171219 56.9917961,14.9355703 56.9917961,16.1526388 L56.9917961,26.8252684 C56.9917961,27.0108681 56.8530438,27.1599299 56.6805669,27.1599299 L52.7877921,27.1599299 C52.6172423,27.1599299 52.4752781,27.0108681 52.4752781,26.8252684 L52.4752781,16.1526388 C52.4752781,14.9355703 52.0648024,13.9128319 51.2432085,13.0944471 C50.4200087,12.2728289 49.2679144,11.8621815 47.7872467,11.8621815 C47.3019346,11.8621815 46.8323607,11.9077731 46.3785248,11.9947527 C45.9372152,12.080439 45.531236,12.1586883 45.1666899,12.226914 C45.1522365,12.2285307 45.1397102,12.2324109 45.1252569,12.2379077 C44.7934717,12.3488149 44.4777458,12.4610154 44.1729403,12.5748326 C44.0473565,12.6210709 43.9673812,12.7465285 43.9673812,12.8897701 L43.9673812,26.8252684 C43.9673812,27.0108681 43.8260594,27.1599299 43.6535825,27.1599299 L39.7608077,27.1599299 C39.5899367,27.1599299 39.4489361,27.0108681 39.4489361,26.8252684" id="Fill-21"></path>
                    <path d="M32.0268407,23.1219723 C31.6549073,23.2218858 31.2489281,23.3095121 30.8085821,23.383558 C30.4388969,23.4576038 30.0155737,23.5267996 29.5424667,23.589205 C29.0655054,23.6525805 28.5618857,23.6832983 28.0287169,23.6832983 C26.5464434,23.6832983 25.509976,23.4398199 24.9180302,22.9541566 C24.3292962,22.4681699 24.0334838,21.9049039 24.0334838,21.2565983 C24.0334838,20.6099094 24.3292962,20.0430866 24.9180302,19.5564533 C25.509976,19.07176 26.5464434,18.8282816 28.0287169,18.8282816 C28.5618857,18.8282816 29.0597241,18.8473589 29.5238379,18.8842202 C29.9882729,18.9223748 30.4154503,18.9663497 30.8085821,19.0151747 C31.2489281,19.0662631 31.6549073,19.1273752 32.0268407,19.2027145 L32.0268407,23.1219723 Z M36.5443223,15.8418724 C36.5443223,13.3045887 35.8264715,11.3030866 34.3878792,9.8334862 C32.9521777,8.36614917 30.8320286,7.63151062 28.0287169,7.63151062 C26.9880742,7.63151062 26.0649855,7.72948398 25.2655535,7.92995753 C24.4667638,8.1291377 23.7665782,8.36614917 23.1640332,8.63775849 C22.5435018,8.9362054 22.0019822,9.25599304 21.5404378,9.59938483 C21.4729888,9.64659312 21.4569295,9.73874628 21.4929023,9.81537891 L23.0901604,12.9010548 C23.1322358,12.9805976 23.2212043,13.0080818 23.2953983,12.9663704 C23.6779309,12.7484363 24.0970787,12.5489327 24.5528416,12.37077 C24.9941513,12.2213848 25.509976,12.0791133 26.1012795,11.9420152 C26.6922618,11.8065339 27.3352763,11.7350748 28.0287169,11.7350748 C29.4194525,11.7350748 30.4315097,12.0348151 31.0703487,12.6323556 C31.7072606,13.2295728 32.0268407,14.051191 32.0268407,15.0952701 C31.6780327,15.0202542 31.2955001,14.9610822 30.8789218,14.9083771 C30.5079519,14.8611688 30.0798109,14.8155772 29.5938565,14.7770992 C29.1066173,14.7431481 28.5853323,14.7247174 28.0287169,14.7247174 C26.5001926,14.7247174 25.1897536,14.8899464 24.1025388,15.2262246 C23.0137182,15.5621795 22.1166456,16.0164784 21.4084304,16.5900915 C20.7008575,17.1627344 20.1808573,17.8466079 19.8458603,18.6423586 C19.508615,19.4381092 19.3415982,20.3101691 19.3415982,21.2565983 C19.3415982,22.1761899 19.508615,23.0421063 19.8458603,23.8498206 C20.1808573,24.6601218 20.7008575,25.3494921 21.4084304,25.9205184 C22.1166456,26.4951014 23.0137182,26.949077 24.1025388,27.2853552 C25.1897536,27.6213101 26.5001926,27.7904192 28.0287169,27.7904192 C29.1647519,27.7904192 30.2294836,27.726397 31.2258027,27.6028795 C32.1402194,27.4864755 32.9826903,27.3500241 33.7586758,27.1957888 L36.5443223,24.5424244 L36.5443223,15.8418724 Z" id="Fill-23"></path>
                </g>
                <g id="Group-35" transform="translate(107.333333, 39.686275)">
                    <g id="Group-28">
                        <mask id="mask-2" fill="white">
                            <use xlink:href="#path-1"></use>
                        </mask>
                        <g id="Clip-27"></g>
                        <path d="M72.2660567,21.2370766 L-12.788782,21.2370766 C-13.5577689,21.2370766 -14.1809627,20.6740071 -14.1809627,19.9792103 L-14.1809627,-3.48517647 C-14.1809627,-4.17968627 -13.5574512,-4.74304278 -12.7884644,-4.74304278 L72.2663744,-4.74304278 C73.0353612,-4.74304278 73.6585551,-4.17997326 73.6585551,-3.48546346 L73.6585551,19.9789234 C73.6585551,20.6737201 73.0350436,21.2370766 72.2660567,21.2370766" id="Fill-26" fill="#E22D36" mask="url(#mask-2)"></path>
                    </g>
                    <g id="Group-31" transform="translate(44.786100, 0.000000)">
                        <mask id="mask-4" fill="white">
                            <use xlink:href="#path-3"></use>
                        </mask>
                        <g id="Clip-30"></g>
                        <path d="M45.0744144,21.2370766 L1.50135077,21.2370766 C0.814948202,21.2370766 0.257821825,20.0592799 0.257821825,18.60741 L0.257821825,-2.11280214 C0.257821825,-3.56524599 0.814948202,-4.74304278 1.50135077,-4.74304278 L45.0744144,-4.74304278" id="Fill-29" fill="#F2AD4B" mask="url(#mask-4)"></path>
                    </g>
                    <g id="Group-34" transform="translate(58.444272, 0.000000)">
                        <mask id="mask-6" fill="white">
                            <use xlink:href="#path-5"></use>
                        </mask>
                        <g id="Clip-33"></g>
                        <path d="M31.0229185,21.2370766 L1.67976462,21.2370766 C0.911095383,21.2370766 0.287901567,20.6740071 0.287901567,19.9794973 L0.287901567,-3.48517647 C0.287901567,-4.17968627 0.911413015,-4.74304278 1.68039988,-4.74304278 L31.0229185,-4.74304278 C31.7919054,-4.74304278 32.4154168,-4.17968627 32.4154168,-3.48517647 L32.4154168,19.9789234 C32.4154168,20.6737201 31.7919054,21.2370766 31.0229185,21.2370766" id="Fill-32" fill="#894590" mask="url(#mask-6)"></path>
                    </g>
                </g>
            </g>
        </g>
    </g>
</svg>